<svg width="17" height="17" viewBox="0 0 17 17" fill="none" xmlns="http://www.w3.org/2000/svg">
<path d="M3.54171 8.49999C3.35385 8.49999 3.17368 8.57462 3.04084 8.70746C2.908 8.84029 2.83337 9.02046 2.83337 9.20832V14.875C2.83337 15.0629 2.908 15.243 3.04084 15.3759C3.17368 15.5087 3.35385 15.5833 3.54171 15.5833C3.72957 15.5833 3.90974 15.5087 4.04257 15.3759C4.17541 15.243 4.25004 15.0629 4.25004 14.875V9.20832C4.25004 9.02046 4.17541 8.84029 4.04257 8.70746C3.90974 8.57462 3.72957 8.49999 3.54171 8.49999ZM7.08337 1.41666C6.89551 1.41666 6.71534 1.49128 6.58251 1.62412C6.44967 1.75696 6.37504 1.93713 6.37504 2.12499V14.875C6.37504 15.0629 6.44967 15.243 6.58251 15.3759C6.71534 15.5087 6.89551 15.5833 7.08337 15.5833C7.27124 15.5833 7.4514 15.5087 7.58424 15.3759C7.71708 15.243 7.79171 15.0629 7.79171 14.875V2.12499C7.79171 1.93713 7.71708 1.75696 7.58424 1.62412C7.4514 1.49128 7.27124 1.41666 7.08337 1.41666ZM14.1667 11.3333C13.9788 11.3333 13.7987 11.408 13.6658 11.5408C13.533 11.6736 13.4584 11.8538 13.4584 12.0417V14.875C13.4584 15.0629 13.533 15.243 13.6658 15.3759C13.7987 15.5087 13.9788 15.5833 14.1667 15.5833C14.3546 15.5833 14.5347 15.5087 14.6676 15.3759C14.8004 15.243 14.875 15.0629 14.875 14.875V12.0417C14.875 11.8538 14.8004 11.6736 14.6676 11.5408C14.5347 11.408 14.3546 11.3333 14.1667 11.3333ZM10.625 5.66666C10.4372 5.66666 10.257 5.74128 10.1242 5.87412C9.99133 6.00696 9.91671 6.18713 9.91671 6.37499V14.875C9.91671 15.0629 9.99133 15.243 10.1242 15.3759C10.257 15.5087 10.4372 15.5833 10.625 15.5833C10.8129 15.5833 10.9931 15.5087 11.1259 15.3759C11.2587 15.243 11.3334 15.0629 11.3334 14.875V6.37499C11.3334 6.18713 11.2587 6.00696 11.1259 5.87412C10.9931 5.74128 10.8129 5.66666 10.625 5.66666Z" fill="black"/>
</svg>
